# This file uses centimeters as units for non-parametric coordinates.

mtllib glass_part2.mtl
g default
v -0.173112 -0.935958 0.290137
v -0.392495 -0.399506 -0.009897
v -0.080255 -0.386771 0.193752
v 0.262935 -0.354816 0.260447
v -0.165950 -0.936620 0.275483
v -0.378006 -0.404752 -0.024572
v -0.072360 -0.392127 0.174692
v 0.263576 -0.359610 0.243169
v -0.451323 0.224598 -0.412744
v -0.441282 0.136974 -0.365062
v -0.264134 0.224598 -0.159910
v -0.273047 0.143422 -0.144802
v -0.005379 0.224598 0.012985
v -0.012322 0.136974 0.029749
v 0.299844 0.224598 0.073698
v 0.295464 0.143422 0.090683
v 0.610987 0.224598 0.027280
v 0.609669 0.215680 0.024097
v -0.457074 0.145732 -0.357428
v -0.455955 0.226738 -0.410825
v -0.285271 0.152236 -0.132455
v -0.267611 0.226737 -0.156432
v -0.018971 0.145730 0.045801
v -0.007260 0.226737 0.017529
v 0.295376 0.152235 0.108057
v 0.299844 0.226737 0.078616
v 0.614509 0.222460 0.035783
v 0.612906 0.226737 0.031912
v 0.282325 -0.071061 0.158043
v -0.459250 0.225343 -0.409460
v -0.376811 0.171749 -0.251771
v -0.270085 0.225342 -0.153958
v -0.367287 0.226737 -0.278125
v -0.162917 0.145731 -0.031317
v -0.008599 0.225341 0.020761
v -0.145919 0.226737 -0.056756
v 0.137344 0.145730 0.093056
v 0.299844 0.225341 0.082115
v 0.143313 0.226737 0.063048
v 0.444475 0.171748 0.088417
v 0.614271 0.225341 0.035207
v 0.456375 0.226737 0.063048
v -0.325187 -0.062929 -0.073586
v -0.443032 -0.088947 -0.204445
v -0.047034 -0.088947 0.113550
v 0.088694 -0.374038 0.242153
v 0.281975 -0.062929 0.177909
v -0.453581 0.226768 -0.411808
v -0.265829 0.226767 -0.158214
v -0.006296 0.226767 0.015201
v 0.299844 0.226767 0.076096
v 0.611923 0.226767 0.029539
v 0.066810 -0.681617 0.305957
v -0.134378 -1.012363 0.324418
v 0.444205 -0.063917 0.160692
v 0.284599 -0.402128 0.260226
v 0.441729 -0.070072 0.146065
v 0.612112 0.217970 0.029998
v -0.106103 -0.655823 0.256154
v -0.233945 -0.374039 0.108512
v -0.280836 -0.706757 0.166831
v -0.222816 -0.379502 0.091208
v -0.097964 -0.658880 0.236505
v -0.269139 -0.709379 0.149141
v 0.093060 -0.379502 0.222049
v 0.070308 -0.683801 0.290480
v -0.448372 0.219396 -0.413966
v -0.363199 0.224598 -0.280856
v -0.261918 0.219396 -0.162125
v -0.362615 0.162768 -0.261669
v -0.143187 0.224598 -0.060845
v -0.004180 0.219396 0.010090
v -0.153266 0.136974 -0.045760
v 0.144272 0.224598 0.058225
v 0.299844 0.219396 0.070564
v 0.140733 0.136974 0.076018
v 0.455415 0.224598 0.058225
v 0.609765 0.219396 0.024329
v 0.441435 0.162768 0.071380
v -0.311386 -0.071061 -0.087881
v -0.426606 -0.096855 -0.215618
v -0.039431 -0.096855 0.095194
v 0.455978 -0.092901 0.158948
v -0.217687 -0.604891 0.184763
v -0.207198 -0.608381 0.166473
v 0.028796 -0.608381 0.264225
v -0.360594 0.219396 -0.282597
v -0.141446 0.219396 -0.063449
v 0.144883 0.219396 0.055152
v 0.454804 0.219396 0.055153
v -0.374501 0.006322 -0.194996
v -0.192614 -0.096855 0.013128
v 0.126915 -0.096855 0.145482
v 0.402695 0.006322 0.126930
v -0.370196 0.225342 -0.276181
v -0.147862 0.225342 -0.053847
v 0.142630 0.225341 0.066479
v 0.457057 0.225341 0.066479
v -0.390026 0.015124 -0.182973
v -0.203650 -0.088947 0.029644
v 0.123040 -0.088947 0.164964
v -0.365192 0.226767 -0.279524
v -0.144519 0.226767 -0.058851
v 0.143804 0.226767 0.060577
v 0.455883 0.226767 0.060577
v 0.023280 -0.604890 0.284575
v 0.082733 -0.708067 0.306159
v 0.405171 0.015124 0.146409
vt 0.353474 0.505281
vt 0.352049 0.437896
vt 0.319637 0.459950
vt 0.283828 0.472077
vt 0.207622 0.326029
vt 0.270233 0.340177
vt 0.244943 0.368294
vt 0.227073 0.401028
vt 0.335417 0.366661
vt 0.334361 0.365502
vt 0.309663 0.390101
vt 0.304232 0.383915
vt 0.282397 0.413871
vt 0.277019 0.407263
vt 0.254018 0.437483
vt 0.249437 0.431295
vt 0.225254 0.460638
vt 0.224432 0.459568
vt 0.336344 0.367664
vt 0.335714 0.366985
vt 0.314906 0.396685
vt 0.310050 0.390559
vt 0.287888 0.420601
vt 0.282754 0.414309
vt 0.259138 0.443472
vt 0.254361 0.437914
vt 0.225974 0.461572
vt 0.225487 0.460937
vt 0.239261 0.449509
vt 0.342149 0.468079
vt 0.240709 0.344398
vt 0.222802 0.361714
vt 0.322207 0.377841
vt 0.295851 0.401525
vt 0.267954 0.425296
vt 0.239287 0.448623
vt 0.304550 0.364907
vt 0.276327 0.377281
vt 0.248961 0.402161
vt 0.231420 0.429436
vt 0.323282 0.379065
vt 0.296823 0.402703
vt 0.268869 0.426436
vt 0.240179 0.449763
vt 0.333069 0.398899
vt 0.316789 0.426252
vt 0.287324 0.449832
vt 0.322845 0.378571
vt 0.296428 0.402227
vt 0.268498 0.425974
vt 0.239817 0.449301
vt 0.321509 0.483704
vt 0.266934 0.427051
vt 0.256992 0.461642
vt 0.253089 0.464374
vt 0.253209 0.438364
vt 0.227906 0.432659
vt 0.225203 0.460570
vt 0.334514 0.479531
vt 0.332978 0.448321
vt 0.352762 0.471588
vt 0.257885 0.357211
vt 0.228852 0.349782
vt 0.238928 0.333103
vt 0.233137 0.380747
vt 0.228467 0.376729
vt 0.334889 0.366082
vt 0.322615 0.378308
vt 0.309277 0.389642
vt 0.317543 0.374323
vt 0.296220 0.401974
vt 0.282040 0.413430
vt 0.290744 0.395190
vt 0.268302 0.425731
vt 0.253677 0.437051
vt 0.262994 0.419247
vt 0.239626 0.449057
vt 0.224843 0.460103
vt 0.237114 0.443561
vt 0.290041 0.367851
vt 0.302297 0.352839
vt 0.262826 0.389836
vt 0.237552 0.415084
vt 0.336029 0.367325
vt 0.325877 0.384191
vt 0.310294 0.390845
vt 0.323024 0.378774
vt 0.301948 0.408752
vt 0.282978 0.414585
vt 0.296590 0.402422
vt 0.273609 0.432441
vt 0.254576 0.438185
vt 0.268650 0.426164
vt 0.244505 0.452890
vt 0.225730 0.461254
vt 0.239966 0.449490
vt 0.328180 0.413546
vt 0.344196 0.402780
vt 0.302101 0.438015
vt 0.304971 0.469842
vt 0.272329 0.458707
vt 0.335566 0.366823
vt 0.309880 0.390359
vt 0.282597 0.414117
vt 0.254211 0.437726
vt 0.225370 0.460787
vt 0.308011 0.475202
vt 0.280548 0.415655
vn 0.287184 0.248318 0.925129
vn 0.204495 0.227293 0.952113
vn 0.879536 -0.460117 0.121281
vn 0.893848 -0.393906 0.214184
vn -0.016839 0.225226 0.974161
vn 0.847578 -0.477946 0.230606
vn 0.129412 -0.287097 -0.949120
vn -0.036314 -0.318062 -0.947374
vn -0.061089 -0.336565 -0.939677
vn -0.321294 0.192637 0.927179
vn -0.369961 0.210424 0.904904
vn -0.523855 0.225292 0.821474
vn -0.536249 0.210156 0.817479
vn -0.368855 0.266386 0.890497
vn -0.532852 0.257238 0.806162
vn -0.618770 0.251194 0.744328
vn 0.618473 -0.251159 -0.744587
vn 0.532794 -0.257232 -0.806202
vn 0.524358 -0.228760 -0.820194
vn 0.536793 -0.218689 -0.814879
vn 0.368872 -0.266238 -0.890534
vn 0.377336 -0.223442 -0.898716
vn 0.416993 -0.279850 -0.864755
vn 0.236293 -0.226832 -0.944835
vn 0.275560 -0.253536 -0.927246
vn 0.216816 -0.262368 -0.940295
vn 0.797730 -0.272094 -0.538136
vn 0.818695 -0.156364 -0.552529
vn 0.792289 -0.187380 -0.580661
vn 0.767537 -0.280271 -0.576485
vn 0.659597 0.608844 -0.440728
vn 0.641894 0.601941 -0.475015
vn 0.563201 0.604660 -0.563197
vn 0.686994 -0.198742 -0.698957
vn 0.655711 -0.289239 -0.697412
vn 0.540698 -0.203840 -0.816146
vn 0.523141 -0.283468 -0.803722
vn 0.442567 0.604512 -0.662344
vn 0.304800 0.604672 -0.735846
vn 0.374752 -0.202547 -0.904730
vn 0.367341 -0.280324 -0.886837
vn 0.194773 -0.203842 -0.959433
vn 0.198402 -0.283469 -0.938233
vn 0.155408 0.604519 -0.781284
vn 0.000001 0.604675 -0.796472
vn 0.008460 -0.198744 -0.980015
vn 0.029487 -0.289239 -0.956802
vn -0.139048 -0.150602 -0.978767
vn -0.126703 -0.289610 -0.948722
vn -0.117994 0.601968 -0.789754
vn -0.154756 0.608881 -0.778019
vn -0.199796 -0.087120 -0.975957
vn 0.753326 -0.286892 -0.591771
vn 0.753404 -0.268020 -0.600456
vn 0.657929 -0.277724 -0.699999
vn 0.527380 -0.281357 -0.801691
vn 0.366797 -0.285144 -0.885524
vn 0.205862 -0.286259 -0.935776
vn 0.046141 -0.288360 -0.956410
vn -0.104630 -0.296884 -0.949164
vn -0.208832 0.967945 0.139543
vn -0.772466 0.374802 0.512659
vn -0.750909 0.370050 0.546991
vn -0.189565 0.971730 0.140734
vn -0.792211 0.308883 0.526301
vn -0.759314 0.316114 0.568783
vn -0.647342 0.317542 0.692903
vn -0.648326 0.368972 0.665982
vn -0.170505 0.970492 0.170509
vn -0.515416 0.355128 0.779892
vn -0.133897 0.970522 0.200396
vn -0.518535 0.307611 0.797808
vn -0.364578 0.303954 0.880168
vn -0.358401 0.350542 0.865256
vn -0.092302 0.970475 0.222842
vn -0.187013 0.355124 0.915922
vn -0.047028 0.970509 0.236431
vn -0.197476 0.307610 0.930795
vn -0.032216 0.317541 0.947697
vn -0.012484 0.368967 0.929359
vn -0.000000 0.970469 0.241224
vn 0.123696 0.390624 0.912202
vn 0.034549 0.971701 0.233673
vn 0.148342 0.306995 0.940079
vn 0.180992 0.398960 0.898929
vn 0.049022 0.967914 0.246455
vn -0.656890 0.280894 0.699710
vn -0.752081 0.293172 0.590275
vn -0.754046 0.269507 0.598982
vn -0.526771 0.284603 0.800945
vn -0.366382 0.288755 0.884525
vn -0.206016 0.256821 0.944246
vn -0.202451 0.287906 0.936015
vn -0.033259 0.284049 0.958233
vn 0.313166 0.921106 -0.231282
vn 0.267855 0.925478 -0.267850
vn 0.298962 0.933123 -0.199759
vn 0.210675 0.925313 -0.315296
vn 0.144937 0.925504 -0.349908
vn 0.073971 0.925330 -0.371877
vn -0.000000 0.925510 -0.378722
vn -0.057882 0.921151 -0.384877
vn -0.070119 0.933176 -0.352514
vn -0.218234 0.212842 0.952403
vn -0.148989 0.164350 0.975085
vn 0.772703 -0.554527 0.308918
vn 0.697083 -0.566170 0.439916
vn 0.130153 0.289919 0.948160
s 1
g wine_glassFBXASC046objFBXASC046003
usemtl wine_glassFBXASC046objFBXASC046001SG
f 27/27/1 55/55/2 83/29/3 58/58/4
f 55/55/2 4/4/5 56/56/6 83/29/3
f 83/29/3 56/56/6 8/8/7 57/57/8
f 58/58/4 83/29/3 57/57/8 18/18/9
f 1/1/10 59/59/11 84/30/12 61/61/13
f 3/3/14 60/60/15 84/30/12 59/59/11
f 2/2/16 61/61/13 84/30/12 60/60/15
f 6/6/17 62/62/18 85/31/19 64/64/20
f 7/7/21 63/63/22 85/31/19 62/62/18
f 5/5/23 64/64/20 85/31/19 63/63/22
f 5/5/23 63/63/22 86/32/24 66/66/25
f 7/7/21 65/65/26 86/32/24 63/63/22
f 8/8/7 66/66/25 86/32/24 65/65/26
f 10/10/27 67/67/28 87/33/29 70/70/30
f 67/67/28 9/9/31 68/68/32 87/33/29
f 87/33/29 68/68/32 11/11/33 69/69/34
f 70/70/30 87/33/29 69/69/34 12/12/35
f 12/12/35 69/69/34 88/34/36 73/73/37
f 69/69/34 11/11/33 71/71/38 88/34/36
f 88/34/36 71/71/38 13/13/39 72/72/40
f 73/73/37 88/34/36 72/72/40 14/14/41
f 14/14/41 72/72/40 89/35/42 76/76/43
f 72/72/40 13/13/39 74/74/44 89/35/42
f 89/35/42 74/74/44 15/15/45 75/75/46
f 76/76/43 89/35/42 75/75/46 16/16/47
f 16/16/47 75/75/46 90/36/48 79/79/49
f 75/75/46 15/15/45 77/77/50 90/36/48
f 90/36/48 77/77/50 17/17/51 78/78/52
f 79/79/49 90/36/48 78/78/52 18/18/9
f 10/10/27 70/70/30 91/37/53 81/81/54
f 12/12/35 80/80/55 91/37/53 70/70/30
f 6/6/17 81/81/54 91/37/53 80/80/55
f 6/6/17 80/80/55 92/38/56 62/62/18
f 80/80/55 12/12/35 73/73/37 92/38/56
f 92/38/56 73/73/37 14/14/41 82/82/57
f 62/62/18 92/38/56 82/82/57 7/7/21
f 7/7/21 82/82/57 93/39/58 65/65/26
f 82/82/57 14/14/41 76/76/43 93/39/58
f 93/39/58 76/76/43 16/16/47 29/83/59
f 65/65/26 93/39/58 29/83/59 8/8/7
f 8/8/7 29/83/59 94/40/60 57/57/8
f 16/16/47 79/79/49 94/40/60 29/83/59
f 18/18/9 57/57/8 94/40/60 79/79/49
f 20/20/61 30/84/62 95/41/63 33/87/64
f 30/84/62 19/19/65 31/85/66 95/41/63
f 95/41/63 31/85/66 21/21/67 32/86/68
f 33/87/64 95/41/63 32/86/68 22/22/69
f 22/22/69 32/86/68 96/42/70 36/90/71
f 32/86/68 21/21/67 34/88/72 96/42/70
f 96/42/70 34/88/72 23/23/73 35/89/74
f 36/90/71 96/42/70 35/89/74 24/24/75
f 24/24/75 35/89/74 97/43/76 39/93/77
f 35/89/74 23/23/73 37/91/78 97/43/76
f 97/43/76 37/91/78 25/25/79 38/92/80
f 39/93/77 97/43/76 38/92/80 26/26/81
f 26/26/81 38/92/80 98/44/82 42/96/83
f 38/92/80 25/25/79 40/94/84 98/44/82
f 98/44/82 40/94/84 27/27/1 41/95/85
f 42/96/83 98/44/82 41/95/85 28/28/86
f 2/2/16 43/97/87 99/45/88 44/98/89
f 21/21/67 31/85/66 99/45/88 43/97/87
f 19/19/65 44/98/89 99/45/88 31/85/66
f 2/2/16 60/60/15 100/46/90 43/97/87
f 60/60/15 3/3/14 45/99/91 100/46/90
f 100/46/90 45/99/91 23/23/73 34/88/72
f 43/97/87 100/46/90 34/88/72 21/21/67
f 3/3/14 46/100/92 101/47/93 45/99/91
f 46/100/92 4/4/5 47/101/94 101/47/93
f 101/47/93 47/101/94 25/25/79 37/91/78
f 45/99/91 101/47/93 37/91/78 23/23/73
f 11/11/33 68/68/32 102/48/95 49/103/96
f 68/68/32 9/9/31 48/102/97 102/48/95
f 102/48/95 48/102/97 20/20/61 33/87/64
f 49/103/96 102/48/95 33/87/64 22/22/69
f 13/13/39 71/71/38 103/49/98 50/104/99
f 71/71/38 11/11/33 49/103/96 103/49/98
f 103/49/98 49/103/96 22/22/69 36/90/71
f 50/104/99 103/49/98 36/90/71 24/24/75
f 15/15/45 74/74/44 104/50/100 51/105/101
f 74/74/44 13/13/39 50/104/99 104/50/100
f 104/50/100 50/104/99 24/24/75 39/93/77
f 51/105/101 104/50/100 39/93/77 26/26/81
f 17/17/51 77/77/50 105/51/102 52/106/103
f 77/77/50 15/15/45 51/105/101 105/51/102
f 105/51/102 51/105/101 26/26/81 42/96/83
f 52/106/103 105/51/102 42/96/83 28/28/86
f 3/3/14 59/59/11 106/52/104 46/100/92
f 1/1/10 53/107/105 106/52/104 59/59/11
f 4/4/5 46/100/92 106/52/104 53/107/105
f 8/8/7 56/56/6 107/53/106 66/66/25
f 56/56/6 4/4/5 53/107/105 107/53/106
f 107/53/106 53/107/105 1/1/10 54/108/107
f 66/66/25 107/53/106 54/108/107 5/5/23
f 25/25/79 47/101/94 108/54/108 40/94/84
f 4/4/5 55/55/2 108/54/108 47/101/94
f 27/27/1 40/94/84 108/54/108 55/55/2
